<svg width="17" height="17" viewBox="0 0 17 17" fill="none" xmlns="http://www.w3.org/2000/svg">
<path d="M8.35 0.000366211C3.73852 0.000366211 0 3.73889 0 8.35037C0 12.9618 3.73852 16.7004 8.35 16.7004C12.9615 16.7004 16.7 12.9618 16.7 8.35037C16.7 3.73889 12.9615 0.000366211 8.35 0.000366211ZM8.35 1.51855C12.1231 1.51855 15.1818 4.57731 15.1818 8.35037C15.1818 12.1234 12.1231 15.1822 8.35 15.1822C4.57694 15.1822 1.51818 12.1234 1.51818 8.35037C1.51818 4.57731 4.57694 1.51855 8.35 1.51855ZM8.35 4.93446C7.9306 4.93446 7.59091 5.27453 7.59091 5.69355V7.59128H5.69318C5.27416 7.59128 4.93409 7.93097 4.93409 8.35037C4.93409 8.76976 5.27416 9.10946 5.69318 9.10946H7.59091V11.0072C7.59091 11.4262 7.9306 11.7663 8.35 11.7663C8.7694 11.7663 9.10909 11.4262 9.10909 11.0072V9.10946H11.0068C11.4258 9.10946 11.7659 8.76976 11.7659 8.35037C11.7659 7.93097 11.4258 7.59128 11.0068 7.59128H9.10909V5.69355C9.10909 5.27453 8.7694 4.93446 8.35 4.93446Z" fill="#2F7EF3"/>
</svg>
