<svg width="32" height="24" viewBox="0 0 32 24" fill="none" xmlns="http://www.w3.org/2000/svg">
<path fill-rule="evenodd" clip-rule="evenodd" d="M0 5.77778C0 5.34822 0.693236 5 1.54839 5H30.4516C31.3068 5 32 5.34822 32 5.77778C32 6.20733 31.3068 6.55556 30.4516 6.55556H1.54839C0.693236 6.55556 0 6.20733 0 5.77778ZM0 12C0 11.5704 0.693236 11.2222 1.54839 11.2222H30.4516C31.3068 11.2222 32 11.5704 32 12C32 12.4296 31.3068 12.7778 30.4516 12.7778H1.54839C0.693236 12.7778 0 12.4296 0 12ZM0 18.2222C0 17.7927 0.693236 17.4444 1.54839 17.4444H30.4516C31.3068 17.4444 32 17.7927 32 18.2222C32 18.6518 31.3068 19 30.4516 19H1.54839C0.693236 19 0 18.6518 0 18.2222Z" fill="#2F7EF3"/>
</svg>
