<svg width="16" height="16" viewBox="0 0 16 16" fill="none" xmlns="http://www.w3.org/2000/svg">
<g clip-path="url(#clip0_401_89)">
<g clip-path="url(#clip1_401_89)">
<rect y="0.000366211" width="16" height="16" rx="8" fill="#10B700" fill-opacity="0.1"/>
</g>
<path d="M11.6036 4.85061L11.6035 4.85061C11.4637 4.85499 11.3326 4.91622 11.2373 5.01886L6.66907 9.8179L4.76466 7.81728C4.7164 7.76479 4.65831 7.72243 4.59354 7.69301C4.52824 7.66337 4.45767 7.64758 4.38602 7.64681C4.31437 7.64605 4.24348 7.66032 4.17758 7.68859C4.1117 7.71684 4.05236 7.75841 4.00281 7.81046C3.95329 7.86249 3.91451 7.92397 3.88842 7.99112C3.86233 8.05826 3.84933 8.12996 3.85003 8.20208C3.85073 8.2742 3.86511 8.34563 3.89251 8.41223C3.91971 8.47834 3.95929 8.53861 4.00931 8.58937L6.29139 10.9868L6.29141 10.9868C6.39027 11.0906 6.52594 11.1504 6.66907 11.1504C6.81219 11.1504 6.94787 11.0906 7.04672 10.9868L7.04674 10.9868L11.9927 5.79093C12.0683 5.71336 12.1192 5.61456 12.1397 5.50778C12.1604 5.40064 12.1498 5.28939 12.109 5.18828C12.0683 5.08712 11.9989 5.00002 11.9088 4.93929C11.8186 4.87849 11.7122 4.84725 11.6036 4.85061Z" fill="#1DB954" stroke="#1DB954" stroke-width="0.3"/>
</g>
<defs>
<clipPath id="clip0_401_89">
<rect width="16" height="16" fill="white" transform="translate(0 0.000366211)"/>
</clipPath>
<clipPath id="clip1_401_89">
<rect width="16" height="16" fill="white" transform="translate(0 0.000366211)"/>
</clipPath>
</defs>
</svg>
