<svg width="16" height="16" viewBox="0 0 16 16" fill="none" xmlns="http://www.w3.org/2000/svg">
<path d="M11.6666 13.3337L11.3956 13.74C11.1486 14.111 10.7323 14.3337 10.2863 14.3337H5.83329C4.08429 14.3337 2.66663 12.916 2.66663 11.167V4.71404C2.66663 4.26838 2.88929 3.85204 3.26029 3.60471L3.66663 3.33371V11.167C3.66663 12.3637 4.63663 13.3337 5.83329 13.3337H11.6666Z" fill="#2F7EF3"/>
<path d="M11.5 12.667H6.16671C5.15571 12.667 4.33337 11.8447 4.33337 10.8337V3.50036C4.33337 2.48936 5.15571 1.66702 6.16671 1.66702H11.5C12.511 1.66702 13.3334 2.48936 13.3334 3.50036V10.8337C13.3334 11.8447 12.511 12.667 11.5 12.667Z" fill="#2F7EF3"/>
</svg>
