<svg width="19" height="18" viewBox="0 0 19 18" fill="none" xmlns="http://www.w3.org/2000/svg">
<path d="M7.625 0.250366C6.17788 0.250366 5 1.42787 5 2.87537C5 3.27834 5.09411 3.65882 5.25708 4.00037H2.75C1.71613 4.00037 0.875 4.84149 0.875 5.87537V7.37537C0.875 8.14247 1.33873 8.80213 2 9.09216V14.5004C2 16.1545 3.34588 17.5004 5 17.5004H14C15.6541 17.5004 17 16.1545 17 14.5004V9.09216C17.6613 8.80213 18.125 8.14247 18.125 7.37537V5.87537C18.125 4.84149 17.2839 4.00037 16.25 4.00037H13.7429C13.9059 3.65882 14 3.27834 14 2.87537C14 1.42787 12.8221 0.250366 11.375 0.250366C10.6407 0.250366 9.977 0.554239 9.5 1.04211C9.023 0.554239 8.35925 0.250366 7.625 0.250366ZM7.625 1.75037C8.24525 1.75037 8.75 2.25512 8.75 2.87537V4.00037H7.625C7.00475 4.00037 6.5 3.49562 6.5 2.87537C6.5 2.25512 7.00475 1.75037 7.625 1.75037ZM11.375 1.75037C11.9952 1.75037 12.5 2.25512 12.5 2.87537C12.5 3.49562 11.9952 4.00037 11.375 4.00037H10.25V2.87537C10.25 2.25512 10.7548 1.75037 11.375 1.75037ZM2.75 5.50037H8.75V7.75037H2.75C2.543 7.75037 2.375 7.58199 2.375 7.37537V5.87537C2.375 5.66874 2.543 5.50037 2.75 5.50037ZM10.25 5.50037H16.25C16.457 5.50037 16.625 5.66874 16.625 5.87537V7.37537C16.625 7.58199 16.457 7.75037 16.25 7.75037H10.25V5.50037ZM3.5 9.25037H8.75V16.0004H5C4.17275 16.0004 3.5 15.3276 3.5 14.5004V9.25037ZM10.25 9.25037H15.5V14.5004C15.5 15.3276 14.8273 16.0004 14 16.0004H10.25V9.25037Z" fill="white"/>
</svg>
