<svg width="15" height="16" viewBox="0 0 15 16" fill="none" xmlns="http://www.w3.org/2000/svg">
<path d="M5.9375 0.875366C4.73156 0.875366 3.75 1.85662 3.75 3.06287C3.75 3.39868 3.82842 3.71575 3.96423 4.00037H1.875C1.01344 4.00037 0.3125 4.7013 0.3125 5.56287V6.81287C0.3125 7.45212 0.698941 8.00183 1.25 8.24353V12.7504C1.25 14.1288 2.37156 15.2504 3.75 15.2504H11.25C12.6284 15.2504 13.75 14.1288 13.75 12.7504V8.24353C14.3011 8.00183 14.6875 7.45212 14.6875 6.81287V5.56287C14.6875 4.7013 13.9866 4.00037 13.125 4.00037H11.0358C11.1716 3.71575 11.25 3.39868 11.25 3.06287C11.25 1.85662 10.2684 0.875366 9.0625 0.875366C8.45063 0.875366 7.8975 1.12859 7.5 1.53516C7.1025 1.12859 6.54938 0.875366 5.9375 0.875366ZM5.9375 2.12537C6.45437 2.12537 6.875 2.54599 6.875 3.06287V4.00037H5.9375C5.42063 4.00037 5 3.57974 5 3.06287C5 2.54599 5.42063 2.12537 5.9375 2.12537ZM9.0625 2.12537C9.57938 2.12537 10 2.54599 10 3.06287C10 3.57974 9.57938 4.00037 9.0625 4.00037H8.125V3.06287C8.125 2.54599 8.54562 2.12537 9.0625 2.12537ZM1.875 5.25037H6.875V7.12537H1.875C1.7025 7.12537 1.5625 6.98505 1.5625 6.81287V5.56287C1.5625 5.39068 1.7025 5.25037 1.875 5.25037ZM8.125 5.25037H13.125C13.2975 5.25037 13.4375 5.39068 13.4375 5.56287V6.81287C13.4375 6.98505 13.2975 7.12537 13.125 7.12537H8.125V5.25037ZM2.5 8.37537H6.875V14.0004H3.75C3.06063 14.0004 2.5 13.4397 2.5 12.7504V8.37537ZM8.125 8.37537H12.5V12.7504C12.5 13.4397 11.9394 14.0004 11.25 14.0004H8.125V8.37537Z" fill="#2F7EF3"/>
</svg>
