<svg width="20" height="19" viewBox="0 0 20 19" fill="none" xmlns="http://www.w3.org/2000/svg">
<path d="M10.6716 0.666577C10.5449 0.411599 10.2848 0.250366 10 0.250366C9.71529 0.250366 9.45511 0.411599 9.32839 0.666577L6.72234 5.9103L0.892908 6.75148C0.609754 6.79234 0.374507 6.99072 0.286441 7.26292C0.198375 7.53511 0.272831 7.8337 0.478389 8.03268L4.69348 12.1128L3.69866 17.8727C3.65011 18.1538 3.76522 18.4381 3.99565 18.6062C4.22609 18.7744 4.53195 18.7972 4.78482 18.6652L10 15.9425L15.2152 18.6652C15.4681 18.7972 15.774 18.7744 16.0044 18.6062C16.2348 18.4381 16.3499 18.1538 16.3014 17.8727L15.3066 12.1128L19.5217 8.03268C19.7272 7.8337 19.8017 7.53511 19.7136 7.26292C19.6255 6.99072 19.3903 6.79234 19.1071 6.75148L13.2777 5.9103L10.6716 0.666577Z" fill="#FFD058"/>
</svg>
