<svg width="20" height="19" viewBox="0 0 20 19" fill="none" xmlns="http://www.w3.org/2000/svg">
<path d="M10.6716 0.666211C10.5449 0.411232 10.2848 0.25 10 0.25C9.71529 0.25 9.45511 0.411232 9.32839 0.666211L6.72234 5.90993L0.892908 6.75111C0.609754 6.79197 0.374507 6.99036 0.286441 7.26255C0.198375 7.53475 0.272831 7.83333 0.478389 8.03231L4.69348 12.1124L3.69866 17.8724C3.65011 18.1534 3.76522 18.4377 3.99565 18.6059C4.22609 18.774 4.53195 18.7969 4.78482 18.6648L10 15.9421L15.2152 18.6648C15.4681 18.7969 15.774 18.774 16.0044 18.6059C16.2348 18.4377 16.3499 18.1534 16.3014 17.8724L15.3066 12.1124L19.5217 8.03231C19.7272 7.83333 19.8017 7.53475 19.7136 7.26255C19.6255 6.99036 19.3903 6.79197 19.1071 6.75111L13.2777 5.90993L10.6716 0.666211Z" fill="#2F7EF3"/>
</svg>
